<?xml version="1.0" encoding="UTF-8"?>
<svg xmlns="http://www.w3.org/2000/svg" version="1.1" width="200" height="200" viewBox="0 0 200 200"><rect x="0" y="0" width="200" height="200" fill="#ffffff"/><g transform="scale(4.878)"><g transform="translate(0,0)"><path fill-rule="evenodd" d="M8 0L8 3L10 3L10 0ZM13 0L13 3L14 3L14 4L15 4L15 3L14 3L14 0ZM17 0L17 1L15 1L15 2L16 2L16 5L15 5L15 6L14 6L14 5L13 5L13 4L10 4L10 7L9 7L9 5L8 5L8 9L7 9L7 8L6 8L6 9L5 9L5 8L2 8L2 9L1 9L1 10L0 10L0 11L1 11L1 12L2 12L2 13L4 13L4 12L5 12L5 14L4 14L4 16L2 16L2 15L3 15L3 14L1 14L1 13L0 13L0 15L1 15L1 17L0 17L0 20L1 20L1 21L0 21L0 22L5 22L5 23L7 23L7 22L8 22L8 25L9 25L9 23L10 23L10 24L11 24L11 23L12 23L12 25L11 25L11 26L10 26L10 27L9 27L9 28L6 28L6 29L8 29L8 30L6 30L6 31L5 31L5 30L4 30L4 29L5 29L5 28L4 28L4 27L7 27L7 26L6 26L6 25L7 25L7 24L6 24L6 25L5 25L5 24L4 24L4 27L3 27L3 26L1 26L1 25L2 25L2 24L3 24L3 23L2 23L2 24L1 24L1 25L0 25L0 26L1 26L1 27L3 27L3 28L0 28L0 33L1 33L1 29L3 29L3 31L2 31L2 33L7 33L7 32L6 32L6 31L8 31L8 34L10 34L10 35L11 35L11 34L13 34L13 35L12 35L12 36L11 36L11 37L12 37L12 38L10 38L10 37L9 37L9 36L8 36L8 39L9 39L9 38L10 38L10 39L12 39L12 40L11 40L11 41L12 41L12 40L13 40L13 36L14 36L14 33L15 33L15 31L17 31L17 28L19 28L19 27L21 27L21 28L20 28L20 29L18 29L18 32L19 32L19 34L18 34L18 33L17 33L17 32L16 32L16 35L15 35L15 36L16 36L16 38L15 38L15 37L14 37L14 39L16 39L16 40L14 40L14 41L16 41L16 40L17 40L17 39L18 39L18 40L19 40L19 41L21 41L21 39L20 39L20 38L21 38L21 37L22 37L22 38L23 38L23 39L22 39L22 40L24 40L24 41L25 41L25 40L24 40L24 37L25 37L25 34L27 34L27 35L26 35L26 36L27 36L27 37L28 37L28 36L27 36L27 35L29 35L29 34L27 34L27 32L26 32L26 30L29 30L29 31L28 31L28 33L31 33L31 34L30 34L30 35L32 35L32 37L40 37L40 38L33 38L33 39L32 39L32 38L31 38L31 39L32 39L32 40L29 40L29 41L32 41L32 40L34 40L34 41L39 41L39 40L40 40L40 38L41 38L41 37L40 37L40 36L37 36L37 35L38 35L38 34L39 34L39 35L40 35L40 34L41 34L41 33L40 33L40 32L41 32L41 31L40 31L40 30L41 30L41 29L39 29L39 28L38 28L38 26L37 26L37 25L39 25L39 27L40 27L40 28L41 28L41 27L40 27L40 26L41 26L41 25L39 25L39 24L37 24L37 25L36 25L36 24L35 24L35 25L34 25L34 23L32 23L32 24L33 24L33 25L30 25L30 24L31 24L31 23L30 23L30 24L29 24L29 27L30 27L30 26L32 26L32 29L31 29L31 28L29 28L29 29L28 29L28 26L27 26L27 29L26 29L26 26L24 26L24 28L23 28L23 29L22 29L22 27L23 27L23 25L24 25L24 23L25 23L25 24L27 24L27 25L28 25L28 22L29 22L29 20L32 20L32 19L34 19L34 22L35 22L35 21L36 21L36 23L39 23L39 22L37 22L37 21L40 21L40 18L41 18L41 16L40 16L40 18L38 18L38 17L39 17L39 16L38 16L38 17L36 17L36 18L35 18L35 17L34 17L34 18L33 18L33 17L32 17L32 16L31 16L31 14L32 14L32 15L33 15L33 16L34 16L34 14L36 14L36 16L37 16L37 12L38 12L38 13L39 13L39 12L40 12L40 14L39 14L39 15L40 15L40 14L41 14L41 11L40 11L40 10L41 10L41 8L38 8L38 9L40 9L40 10L39 10L39 12L38 12L38 11L36 11L36 10L37 10L37 9L36 9L36 8L33 8L33 9L32 9L32 8L31 8L31 9L30 9L30 8L28 8L28 7L29 7L29 5L30 5L30 7L31 7L31 5L32 5L32 7L33 7L33 4L31 4L31 3L32 3L32 2L31 2L31 1L33 1L33 0L29 0L29 1L30 1L30 4L29 4L29 2L28 2L28 1L27 1L27 0L24 0L24 3L26 3L26 4L25 4L25 5L26 5L26 4L27 4L27 6L26 6L26 7L25 7L25 6L24 6L24 10L25 10L25 11L24 11L24 12L23 12L23 10L21 10L21 9L20 9L20 8L21 8L21 6L22 6L22 8L23 8L23 6L22 6L22 5L24 5L24 4L23 4L23 3L22 3L22 2L21 2L21 1L23 1L23 0ZM11 1L11 2L12 2L12 1ZM18 1L18 2L17 2L17 3L18 3L18 4L17 4L17 5L16 5L16 6L15 6L15 7L14 7L14 6L13 6L13 7L12 7L12 6L11 6L11 7L12 7L12 8L13 8L13 10L12 10L12 12L11 12L11 13L9 13L9 11L11 11L11 9L10 9L10 8L9 8L9 9L10 9L10 10L9 10L9 11L8 11L8 10L7 10L7 9L6 9L6 10L7 10L7 11L6 11L6 12L8 12L8 13L6 13L6 14L7 14L7 15L5 15L5 16L4 16L4 17L3 17L3 18L5 18L5 19L4 19L4 20L2 20L2 21L5 21L5 22L7 22L7 21L6 21L6 20L7 20L7 19L6 19L6 18L7 18L7 17L6 17L6 16L7 16L7 15L8 15L8 16L9 16L9 17L8 17L8 18L9 18L9 17L10 17L10 19L11 19L11 18L12 18L12 20L11 20L11 21L10 21L10 20L9 20L9 21L10 21L10 22L11 22L11 21L12 21L12 23L13 23L13 22L15 22L15 24L13 24L13 25L14 25L14 26L16 26L16 25L17 25L17 27L19 27L19 26L21 26L21 25L20 25L20 23L21 23L21 24L22 24L22 25L23 25L23 24L22 24L22 22L26 22L26 23L27 23L27 20L26 20L26 19L27 19L27 18L28 18L28 20L29 20L29 18L28 18L28 17L29 17L29 16L30 16L30 15L28 15L28 17L27 17L27 14L26 14L26 13L25 13L25 12L30 12L30 13L28 13L28 14L30 14L30 13L32 13L32 14L34 14L34 13L36 13L36 11L35 11L35 10L36 10L36 9L35 9L35 10L34 10L34 9L33 9L33 10L30 10L30 9L26 9L26 8L25 8L25 10L30 10L30 11L25 11L25 12L24 12L24 13L25 13L25 15L24 15L24 14L23 14L23 13L22 13L22 11L21 11L21 10L20 10L20 9L19 9L19 8L18 8L18 6L19 6L19 7L20 7L20 6L21 6L21 5L18 5L18 4L21 4L21 3L20 3L20 2L19 2L19 1ZM18 2L18 3L19 3L19 2ZM26 2L26 3L27 3L27 2ZM17 5L17 6L16 6L16 7L17 7L17 6L18 6L18 5ZM27 6L27 7L28 7L28 6ZM16 8L16 9L14 9L14 10L16 10L16 11L17 11L17 12L19 12L19 15L20 15L20 16L18 16L18 18L20 18L20 19L22 19L22 21L21 21L21 20L19 20L19 23L18 23L18 20L17 20L17 22L16 22L16 19L17 19L17 16L16 16L16 15L14 15L14 14L17 14L17 15L18 15L18 13L16 13L16 12L15 12L15 11L14 11L14 12L12 12L12 13L11 13L11 14L10 14L10 16L11 16L11 17L12 17L12 18L13 18L13 17L14 17L14 16L15 16L15 18L14 18L14 19L13 19L13 20L12 20L12 21L13 21L13 20L14 20L14 19L15 19L15 22L16 22L16 23L17 23L17 24L18 24L18 25L19 25L19 23L20 23L20 22L22 22L22 21L24 21L24 20L25 20L25 19L26 19L26 15L25 15L25 17L23 17L23 16L24 16L24 15L23 15L23 16L22 16L22 14L21 14L21 15L20 15L20 13L21 13L21 11L20 11L20 10L19 10L19 9L18 9L18 10L17 10L17 8ZM2 9L2 10L1 10L1 11L2 11L2 12L4 12L4 10L3 10L3 9ZM32 11L32 13L34 13L34 12L35 12L35 11L34 11L34 12L33 12L33 11ZM8 13L8 14L9 14L9 13ZM11 15L11 16L12 16L12 17L13 17L13 16L12 16L12 15ZM21 16L21 18L22 18L22 19L25 19L25 18L23 18L23 17L22 17L22 16ZM1 17L1 19L2 19L2 17ZM30 17L30 19L32 19L32 18L31 18L31 17ZM34 18L34 19L35 19L35 18ZM36 18L36 21L37 21L37 20L39 20L39 19L38 19L38 18ZM30 21L30 22L33 22L33 21ZM15 24L15 25L16 25L16 24ZM33 25L33 28L34 28L34 29L32 29L32 30L31 30L31 29L29 29L29 30L31 30L31 33L32 33L32 31L33 31L33 30L34 30L34 32L35 32L35 30L36 30L36 29L37 29L37 31L36 31L36 32L37 32L37 34L38 34L38 32L39 32L39 29L38 29L38 28L36 28L36 27L37 27L37 26L36 26L36 25L35 25L35 26L34 26L34 25ZM11 26L11 27L12 27L12 30L11 30L11 28L10 28L10 32L9 32L9 33L10 33L10 34L11 34L11 33L10 33L10 32L11 32L11 31L12 31L12 33L13 33L13 31L14 31L14 30L16 30L16 29L14 29L14 30L13 30L13 27L12 27L12 26ZM15 27L15 28L16 28L16 27ZM34 27L34 28L35 28L35 27ZM3 28L3 29L4 29L4 28ZM24 28L24 29L23 29L23 30L24 30L24 29L25 29L25 28ZM20 29L20 31L19 31L19 32L20 32L20 31L21 31L21 34L20 34L20 35L21 35L21 36L18 36L18 37L17 37L17 38L18 38L18 37L19 37L19 38L20 38L20 37L21 37L21 36L22 36L22 37L23 37L23 36L22 36L22 35L21 35L21 34L22 34L22 33L23 33L23 32L22 32L22 29ZM34 29L34 30L35 30L35 29ZM8 30L8 31L9 31L9 30ZM3 31L3 32L4 32L4 31ZM29 31L29 32L30 32L30 31ZM24 32L24 34L25 34L25 32ZM33 33L33 36L36 36L36 33ZM39 33L39 34L40 34L40 33ZM34 34L34 35L35 35L35 34ZM16 35L16 36L17 36L17 35ZM30 36L30 37L29 37L29 39L30 39L30 37L31 37L31 36ZM25 38L25 39L28 39L28 38ZM34 39L34 40L35 40L35 39ZM36 39L36 40L39 40L39 39ZM0 0L0 7L7 7L7 0ZM1 1L1 6L6 6L6 1ZM2 2L2 5L5 5L5 2ZM34 0L34 7L41 7L41 0ZM35 1L35 6L40 6L40 1ZM36 2L36 5L39 5L39 2ZM0 34L0 41L7 41L7 34ZM1 35L1 40L6 40L6 35ZM2 36L2 39L5 39L5 36Z" fill="#000000"/></g></g></svg>
