<?xml version="1.0" encoding="UTF-8"?>
<svg xmlns="http://www.w3.org/2000/svg" version="1.1" width="200" height="200" viewBox="0 0 200 200"><rect x="0" y="0" width="200" height="200" fill="#ffffff"/><g transform="scale(4.878)"><g transform="translate(0,0)"><path fill-rule="evenodd" d="M8 0L8 3L9 3L9 0ZM11 0L11 1L13 1L13 2L11 2L11 3L13 3L13 4L14 4L14 3L15 3L15 4L16 4L16 2L17 2L17 4L19 4L19 3L20 3L20 2L21 2L21 1L18 1L18 0L17 0L17 1L16 1L16 2L15 2L15 0ZM25 0L25 1L23 1L23 3L21 3L21 4L20 4L20 5L19 5L19 6L18 6L18 5L15 5L15 6L14 6L14 5L13 5L13 6L12 6L12 7L13 7L13 6L14 6L14 7L15 7L15 8L16 8L16 9L14 9L14 11L15 11L15 10L16 10L16 11L17 11L17 16L16 16L16 15L15 15L15 14L14 14L14 13L16 13L16 12L12 12L12 10L13 10L13 8L12 8L12 9L11 9L11 5L10 5L10 7L9 7L9 5L8 5L8 9L7 9L7 8L6 8L6 9L5 9L5 8L2 8L2 9L3 9L3 10L1 10L1 9L0 9L0 11L1 11L1 12L2 12L2 13L0 13L0 15L1 15L1 17L0 17L0 19L1 19L1 17L2 17L2 20L1 20L1 22L0 22L0 24L2 24L2 23L1 23L1 22L3 22L3 23L4 23L4 22L3 22L3 21L2 21L2 20L4 20L4 21L5 21L5 20L4 20L4 18L5 18L5 17L4 17L4 16L5 16L5 15L7 15L7 16L6 16L6 17L7 17L7 18L6 18L6 19L7 19L7 20L6 20L6 21L7 21L7 22L6 22L6 23L7 23L7 24L3 24L3 25L7 25L7 26L6 26L6 27L5 27L5 26L2 26L2 25L1 25L1 26L0 26L0 33L1 33L1 27L3 27L3 29L4 29L4 28L6 28L6 29L5 29L5 30L4 30L4 32L3 32L3 30L2 30L2 33L8 33L8 34L9 34L9 36L8 36L8 39L9 39L9 38L10 38L10 39L11 39L11 38L12 38L12 39L13 39L13 37L14 37L14 39L16 39L16 38L17 38L17 39L18 39L18 40L19 40L19 41L21 41L21 40L19 40L19 39L20 39L20 38L21 38L21 37L22 37L22 38L23 38L23 37L26 37L26 38L25 38L25 39L28 39L28 38L27 38L27 37L28 37L28 36L29 36L29 34L27 34L27 33L26 33L26 35L25 35L25 34L23 34L23 33L21 33L21 34L19 34L19 35L18 35L18 33L19 33L19 32L20 32L20 31L21 31L21 32L22 32L22 31L21 31L21 30L20 30L20 29L22 29L22 27L23 27L23 25L22 25L22 24L23 24L23 23L25 23L25 24L27 24L27 25L28 25L28 22L29 22L29 20L33 20L33 19L34 19L34 22L33 22L33 21L30 21L30 22L33 22L33 23L32 23L32 24L33 24L33 25L30 25L30 24L31 24L31 23L30 23L30 24L29 24L29 27L30 27L30 26L32 26L32 29L31 29L31 28L29 28L29 29L28 29L28 26L24 26L24 28L23 28L23 30L24 30L24 31L23 31L23 32L24 32L24 31L26 31L26 32L27 32L27 30L29 30L29 31L28 31L28 33L31 33L31 34L30 34L30 35L32 35L32 37L40 37L40 38L38 38L38 39L39 39L39 40L36 40L36 39L37 39L37 38L33 38L33 39L32 39L32 38L31 38L31 39L32 39L32 40L29 40L29 41L32 41L32 40L34 40L34 41L39 41L39 40L40 40L40 38L41 38L41 37L40 37L40 36L37 36L37 35L38 35L38 34L39 34L39 35L40 35L40 34L41 34L41 33L40 33L40 32L41 32L41 31L40 31L40 30L41 30L41 29L39 29L39 28L38 28L38 26L37 26L37 25L39 25L39 27L40 27L40 26L41 26L41 25L39 25L39 24L37 24L37 23L36 23L36 22L38 22L38 21L40 21L40 20L41 20L41 19L40 19L40 18L41 18L41 16L40 16L40 18L38 18L38 17L39 17L39 16L38 16L38 17L36 17L36 18L35 18L35 17L34 17L34 18L33 18L33 17L31 17L31 16L28 16L28 15L29 15L29 14L30 14L30 15L31 15L31 14L32 14L32 13L34 13L34 14L33 14L33 16L34 16L34 14L36 14L36 16L37 16L37 15L38 15L38 13L39 13L39 12L40 12L40 14L39 14L39 15L40 15L40 14L41 14L41 11L40 11L40 10L41 10L41 8L38 8L38 9L40 9L40 10L39 10L39 12L38 12L38 11L36 11L36 10L37 10L37 9L36 9L36 8L33 8L33 9L32 9L32 8L31 8L31 9L30 9L30 8L28 8L28 7L29 7L29 5L30 5L30 7L31 7L31 5L32 5L32 7L33 7L33 4L31 4L31 2L30 2L30 1L27 1L27 0ZM31 0L31 1L32 1L32 2L33 2L33 1L32 1L32 0ZM13 2L13 3L14 3L14 2ZM24 2L24 3L23 3L23 4L22 4L22 6L21 6L21 7L20 7L20 6L19 6L19 7L20 7L20 9L19 9L19 8L18 8L18 6L17 6L17 7L16 7L16 6L15 6L15 7L16 7L16 8L17 8L17 11L19 11L19 10L20 10L20 11L21 11L21 10L22 10L22 11L23 11L23 12L21 12L21 13L22 13L22 14L21 14L21 15L19 15L19 16L18 16L18 17L17 17L17 18L16 18L16 17L15 17L15 16L14 16L14 19L15 19L15 20L13 20L13 17L12 17L12 16L13 16L13 15L14 15L14 14L12 14L12 16L11 16L11 14L10 14L10 13L12 13L12 12L11 12L11 11L10 11L10 12L9 12L9 10L11 10L11 9L10 9L10 8L9 8L9 10L8 10L8 13L9 13L9 14L7 14L7 13L4 13L4 12L3 12L3 11L2 11L2 12L3 12L3 13L4 13L4 14L2 14L2 15L3 15L3 16L2 16L2 17L3 17L3 18L4 18L4 17L3 17L3 16L4 16L4 14L7 14L7 15L8 15L8 16L9 16L9 15L10 15L10 18L9 18L9 17L8 17L8 18L9 18L9 20L8 20L8 22L7 22L7 23L8 23L8 22L9 22L9 20L11 20L11 19L12 19L12 22L16 22L16 23L17 23L17 21L15 21L15 20L16 20L16 19L17 19L17 20L18 20L18 21L19 21L19 20L21 20L21 19L20 19L20 18L19 18L19 17L20 17L20 16L21 16L21 17L23 17L23 15L24 15L24 14L23 14L23 12L24 12L24 11L25 11L25 10L24 10L24 9L23 9L23 8L24 8L24 6L25 6L25 7L26 7L26 6L27 6L27 7L28 7L28 6L27 6L27 4L26 4L26 3L27 3L27 2L26 2L26 3L25 3L25 2ZM28 2L28 3L29 3L29 4L30 4L30 2ZM23 4L23 6L22 6L22 8L23 8L23 6L24 6L24 4ZM25 4L25 5L26 5L26 4ZM25 8L25 9L26 9L26 10L30 10L30 11L26 11L26 12L25 12L25 15L26 15L26 16L27 16L27 15L26 15L26 14L27 14L27 13L26 13L26 12L30 12L30 13L32 13L32 11L33 11L33 12L34 12L34 13L36 13L36 11L35 11L35 10L30 10L30 9L26 9L26 8ZM4 9L4 10L5 10L5 12L7 12L7 11L6 11L6 10L7 10L7 9L6 9L6 10L5 10L5 9ZM18 9L18 10L19 10L19 9ZM20 9L20 10L21 10L21 9ZM18 12L18 14L19 14L19 12ZM37 12L37 13L38 13L38 12ZM28 13L28 14L29 14L29 13ZM22 14L22 15L21 15L21 16L22 16L22 15L23 15L23 14ZM11 17L11 18L12 18L12 17ZM25 17L25 18L26 18L26 17ZM27 17L27 18L29 18L29 17ZM30 17L30 19L33 19L33 18L31 18L31 17ZM15 18L15 19L16 19L16 18ZM18 18L18 20L19 20L19 18ZM34 18L34 19L35 19L35 18ZM36 18L36 21L35 21L35 22L34 22L34 23L33 23L33 24L34 24L34 25L33 25L33 27L35 27L35 28L34 28L34 29L32 29L32 30L31 30L31 29L29 29L29 30L30 30L30 31L29 31L29 32L31 32L31 33L32 33L32 32L33 32L33 30L34 30L34 32L35 32L35 30L36 30L36 29L37 29L37 31L36 31L36 32L37 32L37 34L38 34L38 32L39 32L39 29L38 29L38 28L36 28L36 27L37 27L37 26L36 26L36 25L37 25L37 24L36 24L36 25L35 25L35 22L36 22L36 21L37 21L37 20L39 20L39 19L38 19L38 18ZM22 19L22 20L23 20L23 19ZM24 19L24 20L25 20L25 19ZM26 19L26 21L24 21L24 22L26 22L26 23L27 23L27 22L26 22L26 21L27 21L27 19ZM28 19L28 20L29 20L29 19ZM10 21L10 22L11 22L11 21ZM18 22L18 23L20 23L20 24L22 24L22 22L21 22L21 23L20 23L20 22ZM9 23L9 25L8 25L8 24L7 24L7 25L8 25L8 26L7 26L7 27L6 27L6 28L7 28L7 29L6 29L6 30L5 30L5 31L6 31L6 32L7 32L7 31L6 31L6 30L11 30L11 31L9 31L9 33L10 33L10 36L9 36L9 37L11 37L11 34L12 34L12 33L13 33L13 34L14 34L14 32L11 32L11 31L14 31L14 30L13 30L13 28L14 28L14 29L15 29L15 28L16 28L16 29L17 29L17 31L16 31L16 30L15 30L15 31L16 31L16 36L17 36L17 38L18 38L18 35L17 35L17 31L18 31L18 32L19 32L19 29L20 29L20 28L21 28L21 27L18 27L18 26L21 26L21 25L18 25L18 24L16 24L16 25L15 25L15 24L13 24L13 23L12 23L12 24L13 24L13 25L14 25L14 26L13 26L13 27L12 27L12 26L11 26L11 24L10 24L10 23ZM9 25L9 26L8 26L8 27L9 27L9 28L8 28L8 29L9 29L9 28L10 28L10 29L11 29L11 30L12 30L12 27L10 27L10 25ZM16 25L16 26L15 26L15 27L14 27L14 28L15 28L15 27L16 27L16 28L17 28L17 29L18 29L18 28L17 28L17 26L18 26L18 25ZM34 25L34 26L35 26L35 25ZM26 27L26 28L27 28L27 27ZM24 28L24 30L26 30L26 29L25 29L25 28ZM34 29L34 30L35 30L35 29ZM31 31L31 32L32 32L32 31ZM10 32L10 33L11 33L11 32ZM33 33L33 36L36 36L36 33ZM39 33L39 34L40 34L40 33ZM22 34L22 35L21 35L21 36L20 36L20 37L19 37L19 38L20 38L20 37L21 37L21 36L22 36L22 37L23 37L23 36L24 36L24 35L23 35L23 34ZM34 34L34 35L35 35L35 34ZM14 35L14 37L15 37L15 38L16 38L16 37L15 37L15 35ZM22 35L22 36L23 36L23 35ZM26 35L26 36L27 36L27 35ZM30 36L30 37L29 37L29 39L30 39L30 37L31 37L31 36ZM22 39L22 40L23 40L23 41L25 41L25 40L23 40L23 39ZM34 39L34 40L35 40L35 39ZM14 40L14 41L16 41L16 40ZM0 0L0 7L7 7L7 0ZM1 1L1 6L6 6L6 1ZM2 2L2 5L5 5L5 2ZM34 0L34 7L41 7L41 0ZM35 1L35 6L40 6L40 1ZM36 2L36 5L39 5L39 2ZM0 34L0 41L7 41L7 34ZM1 35L1 40L6 40L6 35ZM2 36L2 39L5 39L5 36Z" fill="#000000"/></g></g></svg>
